<svg height="24" viewBox="0 0 48 48" width="24" xmlns="http://www.w3.org/2000/svg" xmlns:xlink="http://www.w3.org/1999/xlink"><radialGradient id="a" cx="8.744803" cy="7.610523" gradientUnits="userSpaceOnUse" r="43.725311"><stop offset="0" stop-color="#fff"/><stop offset="1" stop-color="#fff" stop-opacity="0"/></radialGradient><path d="m0-1h48v48h-48z" fill="none"/><circle cx="24" cy="23" fill="#fff" r="22"/><path d="m24 1.23c12.11 0 21.94 9.79 22 21.89v-.11c0-12.15-9.85-22-22-22-12.15-.01-22 9.84-22 21.99v.11c.06-12.09 9.89-21.88 22-21.88z" fill="#fff" fill-opacity=".2"/><path d="m24 44.77c12.11 0 21.94-9.79 22-21.89v.11c0 12.15-9.85 22-22 22-12.15.01-22-9.84-22-21.99v-.11c.06 12.09 9.89 21.88 22 21.88z" fill="#263238" fill-opacity=".15"/><path d="m33.76 34.26c2.75-2.56 4.49-6.37 4.49-11.26 0-.89-.08-1.84-.29-3h-13.95v5.99h8.03c-.4 2.02-1.5 3.56-3.07 4.56v.75l3.91 2.97h.88z" fill="#4285f4"/><path d="m15.58 25.77a8.845 8.845 0 0 0 8.42 6.09c1.92 0 3.62-.46 4.97-1.31l4.79 3.71c-2.62 2.44-6.11 3.74-9.76 3.74-5.93 0-11.01-3.4-13.45-8.36l.17-1.01 4.06-2.85h.8z" fill="#34a853"/><path d="m15.59 20.21a8.864 8.864 0 0 0 0 5.58l-5.03 3.86c-.98-2-1.53-4.25-1.53-6.64s.55-4.64 1.53-6.64l1-.22 3.81 2.98z" fill="#fbbc05"/><path d="m24 14.14c2.11 0 4.02.75 5.52 1.98l4.36-4.36c-2.66-2.33-6.07-3.76-9.88-3.76-5.93 0-11.01 3.4-13.45 8.36l5.03 3.85a8.86 8.86 0 0 1 8.42-6.07z" fill="#ea4335"/><circle cx="24" cy="23" fill="url(#a)" fill-opacity=".1" r="22"/></svg>